<svg xmlns="http://www.w3.org/2000/svg" width="100" height="100" preserveAspectRatio="xMidYMid meet" version="1.0" viewBox="0 0 75 75" zoomAndPan="magnify"><defs><clipPath id="0e96ccac71"><path d="M1.613 52H11v7H1.613Zm0 0" clip-rule="nonzero"/></clipPath><clipPath id="13a53c244d"><path d="M64 52h9.613v7H64Zm0 0" clip-rule="nonzero"/></clipPath><clipPath id="db07f03341"><path d="M3 1.613h69V55H3Zm0 0" clip-rule="nonzero"/></clipPath><clipPath id="090462bb79"><path d="M31 66h13v7.613H31Zm0 0" clip-rule="nonzero"/></clipPath></defs><path fill="#83e1e5" fill-opacity="1" fill-rule="nonzero" d="M39.863 70.238h-4.5a2.248 2.248 0 0 1-2.25-2.25 2.246 2.246 0 0 1 2.25-2.25h4.5a2.25 2.25 0 0 1 0 4.5ZM34.238 56.738l-6.75 9-1.125-9h-4.5v-18h27v18Zm0 0"/><path fill="#0b0b0e" fill-opacity="1" fill-rule="nonzero" d="M17.363 67.988h-3.375a5.631 5.631 0 0 1-5.625-5.625v-13.5a5.631 5.631 0 0 1 5.625-5.625h3.375a3.378 3.378 0 0 1 3.375 3.375v18a3.38 3.38 0 0 1-3.375 3.375Zm-3.375-22.5a3.376 3.376 0 0 0-3.375 3.375v13.5a3.378 3.378 0 0 0 3.375 3.375h3.375c.617 0 1.125-.504 1.125-1.125v-18c0-.62-.508-1.125-1.125-1.125Zm0 0"/><g clip-path="url(#0e96ccac71)"><path fill="#0b0b0e" fill-opacity="1" fill-rule="nonzero" d="M9.488 58.988h-4.5a3.376 3.376 0 0 1 0-6.75h4.5c.621 0 1.125.5 1.125 1.125v4.5c0 .621-.504 1.125-1.125 1.125Zm-4.5-4.5a1.125 1.125 0 0 0 0 2.25h3.375v-2.25Zm0 0"/></g><path fill="#0b0b0e" fill-opacity="1" fill-rule="nonzero" d="M61.238 67.988h-3.375a3.378 3.378 0 0 1-3.375-3.375v-18a3.376 3.376 0 0 1 3.375-3.375h3.375a5.631 5.631 0 0 1 5.625 5.625v13.5a5.631 5.631 0 0 1-5.625 5.625Zm-3.375-22.5c-.62 0-1.125.504-1.125 1.125v18c0 .621.504 1.125 1.125 1.125h3.375a3.38 3.38 0 0 0 3.375-3.375v-13.5a3.378 3.378 0 0 0-3.375-3.375Zm0 0"/><g clip-path="url(#13a53c244d)"><path fill="#0b0b0e" fill-opacity="1" fill-rule="nonzero" d="M70.238 58.988h-4.5a1.125 1.125 0 0 1-1.125-1.125v-4.5c0-.625.504-1.125 1.125-1.125h4.5a3.378 3.378 0 0 1 3.375 3.375 3.38 3.38 0 0 1-3.375 3.375Zm-3.375-2.25h3.375c.617 0 1.125-.504 1.125-1.125 0-.62-.508-1.125-1.125-1.125h-3.375Zm0 0"/></g><g clip-path="url(#db07f03341)"><path fill="#0b0b0e" fill-opacity="1" fill-rule="nonzero" d="M70.238 54.488a1.125 1.125 0 0 1-1.125-1.125v-18c0-8.418-3.277-16.332-9.222-22.281-5.946-5.945-13.86-9.219-22.278-9.219-17.37 0-31.5 14.13-31.5 31.5v18a1.125 1.125 0 0 1-2.25 0v-18c0-18.61 15.14-33.75 33.75-33.75 9.02 0 17.496 3.508 23.867 9.88 6.372 6.37 9.883 14.847 9.883 23.87v18c0 .621-.504 1.125-1.125 1.125Zm0 0"/></g><path fill="#0b0b0e" fill-opacity="1" fill-rule="nonzero" d="M9.488 36.488a1.125 1.125 0 0 1-1.125-1.125c0-11.215 6.555-21.586 16.703-26.418a1.124 1.124 0 1 1 .97 2.032c-9.372 4.46-15.423 14.035-15.423 24.386 0 .621-.504 1.125-1.125 1.125ZM65.738 36.488a1.125 1.125 0 0 1-1.125-1.125c0-10.351-6.054-19.925-15.425-24.39a1.121 1.121 0 0 1-.532-1.496c.266-.563.938-.801 1.5-.532 10.149 4.832 16.707 15.203 16.707 26.418 0 .621-.504 1.125-1.125 1.125ZM57.863 71.363h-15.75a1.125 1.125 0 0 1 0-2.25h15.75c.617 0 1.125-.504 1.125-1.125 0-.625.504-1.125 1.125-1.125s1.125.5 1.125 1.125a3.38 3.38 0 0 1-3.375 3.375Zm0 0"/><g clip-path="url(#090462bb79)"><path fill="#0b0b0e" fill-opacity="1" fill-rule="nonzero" d="M39.863 73.613h-4.5a3.376 3.376 0 0 1 0-6.75h4.5a3.378 3.378 0 0 1 3.375 3.375 3.38 3.38 0 0 1-3.375 3.375Zm-4.5-4.5a1.125 1.125 0 0 0 0 2.25h4.5c.617 0 1.125-.504 1.125-1.125 0-.62-.508-1.125-1.125-1.125Zm0 0"/></g><path fill="#0b0b0e" fill-opacity="1" fill-rule="nonzero" d="M29.738 62.363c-.097 0-.195-.015-.289-.039a1.119 1.119 0 0 1-.828-.949l-1.004-8.012h-3.504a1.125 1.125 0 0 1-1.125-1.125v-18c0-.625.504-1.125 1.125-1.125h27c.621 0 1.125.5 1.125 1.125v18c0 .621-.504 1.125-1.125 1.125H37.051l-6.414 8.547c-.215.29-.551.453-.899.453Zm-4.5-11.25h3.375c.567 0 1.043.422 1.114.985l.78 6.238 5.079-6.773c.21-.286.547-.45.902-.45h13.5v-15.75h-24.75Zm0 0"/><path fill="#0b0b0e" fill-opacity="1" fill-rule="nonzero" d="M45.488 42.113h-15.75a1.125 1.125 0 0 1 0-2.25h15.75a1.125 1.125 0 0 1 0 2.25ZM36.488 46.613h-6.75a1.125 1.125 0 0 1 0-2.25h6.75a1.125 1.125 0 0 1 0 2.25ZM45.488 46.613c-.293 0-.586-.125-.8-.328a1.182 1.182 0 0 1-.325-.797c0-.293.121-.586.325-.8.43-.415 1.183-.415 1.597 0 .203.214.328.507.328.8 0 .29-.125.582-.328.797a1.164 1.164 0 0 1-.797.328ZM40.988 46.613a1.132 1.132 0 0 1-1.125-1.125c0-.293.121-.586.325-.8.43-.415 1.183-.415 1.597 0 .203.214.328.507.328.8 0 .29-.125.582-.328.797a1.164 1.164 0 0 1-.797.328ZM47.332 14.594c-.129 0-.262-.024-.39-.07-5.934-2.208-12.727-2.208-18.657 0-.492.18-1.039.003-1.328-.43L22.097 6.8a1.121 1.121 0 0 1 .31-1.559 1.127 1.127 0 0 1 1.562.313l4.37 6.562c5.938-2 12.606-2 18.54 0l4.375-6.562a1.126 1.126 0 0 1 1.562-.313c.516.344.657 1.043.309 1.559l-4.86 7.293c-.21.32-.566.5-.933.5Zm0 0"/></svg>