<svg xmlns="http://www.w3.org/2000/svg" width="100" height="100" preserveAspectRatio="xMidYMid meet" version="1.0" viewBox="0 0 75 75" zoomAndPan="magnify"><defs><clipPath id="616c5442a2"><path d="M14 58h46v15.492H14Zm0 0" clip-rule="nonzero"/></clipPath><clipPath id="3b9b9558c2"><path d="M14 1.492h46V23H14Zm0 0" clip-rule="nonzero"/></clipPath></defs><path fill="#fff" fill-opacity="1" fill-rule="nonzero" d="M16.492 14.992h42v48h-42Zm0 0"/><path fill="#fff" fill-opacity="1" fill-rule="nonzero" d="M58.492 62.992v6a3.006 3.006 0 0 1-3 3h-36a3.006 3.006 0 0 1-3-3v-6ZM58.492 5.992v9h-42v-9a3.006 3.006 0 0 1 3-3h36a3.006 3.006 0 0 1 3 3Zm0 0"/><path fill="#f2f2f2" fill-opacity="1" fill-rule="nonzero" d="M35.992 31.492v6h-6a1.5 1.5 0 0 1-1.5-1.5v-3a1.5 1.5 0 0 1 1.5-1.5ZM17.992 34.492a2.966 2.966 0 0 1-.879 2.121 2.98 2.98 0 0 1-2.12.88 2.966 2.966 0 0 1-2.122-.88 2.91 2.91 0 0 1-.648-.972 2.97 2.97 0 0 1 0-2.297 2.97 2.97 0 0 1 1.621-1.621 2.97 2.97 0 0 1 2.297 0c.367.152.691.367.972.648a2.98 2.98 0 0 1 .88 2.121Zm0 0"/><path fill="#90a4b1" fill-opacity="1" fill-rule="nonzero" d="M61.492 37.492h7.5v22.5a3.006 3.006 0 0 1-3 3h-21a3.006 3.006 0 0 1-3-3v-22.5Zm0 0"/><path fill="#83e1e5" fill-opacity="1" fill-rule="nonzero" d="M5.992 50.992v-24a1.5 1.5 0 0 1 1.5-1.5h33a1.5 1.5 0 0 1 1.5 1.5v25.5h-34.5a1.5 1.5 0 0 1-1.5-1.5Zm30-13.5v-6h-6a1.5 1.5 0 0 0-1.5 1.5v3a1.5 1.5 0 0 0 1.5 1.5Zm-18-3a3 3 0 1 0-3 3 3.006 3.006 0 0 0 3-3Zm0 0"/><g clip-path="url(#616c5442a2)"><path fill="#000" fill-opacity="1" fill-rule="nonzero" d="M56.992 68.992a1.5 1.5 0 0 1-1.5 1.5h-36a1.5 1.5 0 0 1-1.5-1.5v-4.5h21v-3h-21v-3h-3v10.5c0 2.485 2.016 4.5 4.5 4.5h36c2.485 0 4.5-2.015 4.5-4.5v-1.5h-3Zm0 0"/></g><g clip-path="url(#3b9b9558c2)"><path fill="#000" fill-opacity="1" fill-rule="nonzero" d="M17.992 16.492h39v6h3v-16.5c0-2.484-2.015-4.5-4.5-4.5h-36a4.501 4.501 0 0 0-4.5 4.5v13.5h3Zm1.5-12h36a1.5 1.5 0 0 1 1.5 1.5v7.5h-39v-7.5a1.5 1.5 0 0 1 1.5-1.5Zm0 0"/></g><path fill="#000" fill-opacity="1" fill-rule="nonzero" d="M28.492 7.492h12v3h-12ZM43.492 7.492h3v3h-3ZM14.992 29.992a4.501 4.501 0 0 0 0 9 4.501 4.501 0 0 0 0-9Zm0 6a1.5 1.5 0 1 1 .001-3 1.5 1.5 0 0 1 0 3ZM35.992 32.992v-3h-6a3 3 0 0 0-3 3v3a3 3 0 0 0 3 3h6v-3h-6v-3ZM10.492 43.492h3v3h-3ZM16.492 43.492h3v3h-3ZM22.492 43.492h13.5v3h-13.5ZM68.992 35.992h-6v-6a3 3 0 0 0-3-3h-9a3 3 0 0 0-3 3v6h-6a1.5 1.5 0 0 0-1.5 1.5v22.5c0 2.485 2.016 4.5 4.5 4.5h21c2.485 0 4.5-2.015 4.5-4.5v-22.5a1.5 1.5 0 0 0-1.5-1.5Zm-18-6h9v6h-9Zm16.5 30a1.5 1.5 0 0 1-1.5 1.5h-21a1.5 1.5 0 0 1-1.5-1.5v-21h4.5v4.5h3v-4.5h9v4.5h3v-4.5h4.5Zm0 0"/><path fill="#000" fill-opacity="1" fill-rule="nonzero" d="M34.492 50.992h-27v-24h33v4.5h3v-4.5a3 3 0 0 0-3-3h-33a3 3 0 0 0-3 3v24a3 3 0 0 0 3 3h27Zm0 0"/></svg>